<?xml version="1.0" encoding="utf-8"?>
<!-- Generator: Adobe Illustrator 15.0.0, SVG Export Plug-In . SVG Version: 6.00 Build 0)  -->
<!DOCTYPE svg PUBLIC "-//W3C//DTD SVG 1.1//EN" "http://www.w3.org/Graphics/SVG/1.1/DTD/svg11.dtd">
<svg version="1.1" id="Layer_1" xmlns="http://www.w3.org/2000/svg" xmlns:xlink="http://www.w3.org/1999/xlink" x="0px" y="0px"
	 width="758px" height="758px" viewBox="0 0 758 758" enable-background="new 0 0 758 758" xml:space="preserve">
<rect fill="#21CE99" width="758" height="758"/>
<g>
	<g>
		<g id="XMLID_2_">
			<path fill="#FFFFFF" d="M620.393,545.755c-11.181,9.675-25.469,21.579-38.12,25.907c-6.882,2.361-116.933-7.019-116.933-7.019
				c-3.719-0.932-0.962-3.611-0.962-3.611l82.311-67.398c2.862-2.694,2.021-8.122-0.375-10.936l-80.864-84.207
				c8.254-3.345,105.551,8.347,118.293,16.304c26.084,16.308,70.429,60.794,66.045,90.516
				C647.82,518.658,633.569,534.355,620.393,545.755z"/>
			<path fill="#FFFFFF" d="M518.517,494.676c-26.571,24.758-58.144,51.646-85.087,73.468c-37.668,4.355-74.97,6.434-112.845,12.021
				c-33.127-26.998-67.068-48.732-100.992-70.724C321.872,487.649,421.244,484.451,518.517,494.676z"/>
			<path fill="#FFFFFF" d="M517.009,469.176c11.514,10.544-13.229,6.211-18.498,5.895c-112.274-6.596-222.726-1.243-340.531,28.02
				c-7.18,1.797-18.023,4.54-27.414,6.696c-9.114,2.09-18.923,9.037-24.173-7.063c42.566-18.147,78.025-32.828,121.588-46.896
				c5.811-1.884,12.106-4.086,12.106-4.086s14.445-11.711,31.629-29.723c9.227-9.671,19.034-21.234,29.875-29.391
				c8.121-6.114,77.29-2.767,101.325-1.72c10.813,0.474,27.641,2.181,32.508,2.888c7.371,1.066,31.343,26.61,41.581,36.167
				C490.651,442.652,503.644,456.923,517.009,469.176z"/>
			<path fill="#FFFFFF" d="M266.836,558.577c1.25,1.293,1.35,2.396,0.581,3.376c-7.42,2.925-14.338,2.613-21.56,4.327
				c-27.038-14.378-54.147-28.311-81.076-43.452c11.421-5.179,21.959-4.641,33.277-9.075
				C221.133,527.699,243.94,543.492,266.836,558.577z"/>
		</g>
		<ellipse fill="#FFFFFF" cx="372.607" cy="239.111" rx="167.31" ry="136.031"/>
		<path fill="#21CE99" d="M490.27,225.297c0,30.044-16.826,58.201-58.706,46.582c-14.511-4.026-38.104-21.313-56.971-20.853
			c-20.355,0.497-42.696,16.88-60.197,20.853c-43.635,9.903-55.48-15.897-55.48-46.582c0-38.114,55.354-63.635,115.677-63.635
			C434.915,161.662,490.27,187.183,490.27,225.297z"/>
		<path fill="#FFFFFF" d="M398.016,225.297c0,11.563,27.806,20.938,36.252,20.938c8.445,0,15.293-9.375,15.293-20.938
			c0-11.564-6.848-20.939-15.293-20.939C425.821,204.358,398.016,213.733,398.016,225.297z"/>
		<path fill="#FFFFFF" d="M348.28,225.297c0,11.563-27.806,20.938-36.251,20.938c-8.446,0-15.292-9.375-15.292-20.938
			c0-11.564,6.846-20.939,15.292-20.939C320.474,204.358,348.28,213.733,348.28,225.297z"/>
		<path fill="#FFFFFF" d="M490.583,158.511c0,0-12.396-8.066-8.417-18.979c10.751-29.503,64.843-54.378,74.195-51.576
			c10.046,3.011-17.817,38.395-17.817,38.395s43.987,12.255,28.514,15.28c-21.184,4.139-35.294,4.618-46.868,7.172
			C512.583,150.481,490.583,158.511,490.583,158.511z"/>
		<path fill="#FFFFFF" d="M251.91,414.424c1.021,1.116-2.496,5.99-7.854,10.884l-0.361,0.33c-5.358,4.895-10.53,7.956-11.551,6.838
			l-45.115-49.395c-1.021-1.117,2.023-6.509,7.38-11.403l0.361-0.33c5.358-4.895,11.186-7.238,12.206-6.12L251.91,414.424z"/>
		<path fill="#FFFFFF" d="M452.596,649.682c0.243,1.108-9.764,4.244-22.354,7.007l-0.845,0.187
			c-12.59,2.761-22.989,4.103-23.231,2.996l-13.494-63.084c-0.243-1.108,65.81-8.687,66.055-7.581L452.596,649.682z"/>
		<path fill="#FFFFFF" d="M293.705,649.682c-0.244,1.108,9.764,4.244,22.353,7.007l0.845,0.187
			c12.589,2.761,22.989,4.103,23.232,2.996l13.103-62.834l-33.03,3.267c0,0-39.436-23.765-39.681-22.658L293.705,649.682z"/>
	</g>
</g>
</svg>
