<?xml version="1.0" encoding="utf-8"?>
<!-- Generator: Adobe Illustrator 15.0.0, SVG Export Plug-In . SVG Version: 6.00 Build 0)  -->
<!DOCTYPE svg PUBLIC "-//W3C//DTD SVG 1.1//EN" "http://www.w3.org/Graphics/SVG/1.1/DTD/svg11.dtd">
<svg version="1.1" id="Layer_1" xmlns="http://www.w3.org/2000/svg" xmlns:xlink="http://www.w3.org/1999/xlink" x="0px" y="0px"
	 width="721.581px" height="758.019px" viewBox="0 0 721.581 758.019" enable-background="new 0 0 721.581 758.019"
	 xml:space="preserve">
<g>
	<g>
		<g id="XMLID_5_">
			<path fill="#FFFFFF" d="M682.167,606.052c-14.837,12.841-33.799,28.64-50.591,34.382c-9.134,3.137-155.19-9.313-155.19-9.313
				c-4.937-1.237-1.276-4.793-1.276-4.793l109.24-89.449c3.798-3.575,2.682-10.779-0.498-14.513L476.529,410.607
				c10.956-4.439,140.086,11.079,156.997,21.639c34.618,21.644,93.472,80.684,87.653,120.13
				C718.569,570.09,699.657,590.925,682.167,606.052z"/>
			<path fill="#FFFFFF" d="M546.961,538.262c-35.266,32.857-77.168,68.544-112.925,97.503
				c-49.993,5.781-99.499,8.539-149.767,15.955c-43.965-35.83-89.011-64.676-134.032-93.862
				C285.979,528.938,417.862,524.69,546.961,538.262z"/>
			<path fill="#FFFFFF" d="M544.959,504.417c15.28,13.995-17.557,8.245-24.548,7.824c-149.01-8.755-295.597-1.649-451.946,37.188
				c-9.529,2.384-23.92,6.024-36.383,8.887C19.986,561.09,6.967,570.31,0,548.941c56.492-24.085,103.554-43.568,161.368-62.239
				c7.712-2.5,16.067-5.422,16.067-5.422s19.172-15.545,41.979-39.447c12.244-12.836,25.26-28.182,39.648-39.01
				c10.777-8.112,102.577-3.669,134.477-2.281c14.351,0.63,36.684,2.895,43.142,3.834c9.782,1.414,41.6,35.315,55.187,47.999
				C509.978,469.217,527.222,488.158,544.959,504.417z"/>
			<path fill="#FFFFFF" d="M212.937,623.069c1.659,1.716,1.792,3.181,0.771,4.48c-9.849,3.883-19.029,3.469-28.613,5.745
				c-35.885-19.084-71.863-37.574-107.602-57.671c15.157-6.873,29.144-6.157,44.164-12.044
				C152.281,582.089,182.55,603.049,212.937,623.069z"/>
		</g>
		<ellipse fill="#FFFFFF" cx="353.313" cy="200.895" rx="222.05" ry="180.539"/>
		<path fill="#21CE99" d="M509.473,182.562c0,39.874-22.332,77.244-77.914,61.821c-19.259-5.343-50.57-28.286-75.61-27.674
			c-27.015,0.659-56.665,22.403-79.892,27.674c-57.911,13.143-73.633-21.098-73.633-61.821c0-50.583,73.466-84.455,153.524-84.455
			C436.006,98.106,509.473,131.978,509.473,182.562z"/>
		<path fill="#FFFFFF" d="M387.035,182.562c0,15.345,36.902,27.789,48.111,27.789s20.296-12.442,20.296-27.789
			c0-15.348-9.087-27.79-20.296-27.79S387.035,167.214,387.035,182.562z"/>
		<path fill="#FFFFFF" d="M321.026,182.562c0,15.345-36.902,27.789-48.111,27.789s-20.296-12.442-20.296-27.789
			c0-15.348,9.087-27.79,20.296-27.79S321.026,167.214,321.026,182.562z"/>
		<path fill="#FFFFFF" d="M509.889,93.925c0,0-16.451-10.706-11.172-25.189c14.271-39.156,86.058-72.17,98.469-68.45
			c13.335,3.996-23.645,50.955-23.645,50.955s58.379,16.266,37.842,20.279c-28.114,5.493-46.841,6.128-62.202,9.518
			C539.086,83.268,509.889,93.925,509.889,93.925z"/>
		<path fill="#FFFFFF" d="M193.127,431.751c1.355,1.483-3.313,7.951-10.424,14.446l-0.479,0.438
			c-7.111,6.496-13.975,10.56-15.33,9.077l-59.875-65.557c-1.355-1.482,2.684-8.64,9.794-15.134l0.479-0.438
			c7.111-6.496,14.846-9.606,16.199-8.123L193.127,431.751z"/>
		<path fill="#FFFFFF" d="M459.471,743.982c0.324,1.471-12.958,5.633-29.666,9.299l-1.122,0.246
			c-16.708,3.667-30.511,5.446-30.833,3.978l-17.908-83.724c-0.324-1.471,87.342-11.529,87.666-10.061L459.471,743.982z"/>
		<path fill="#FFFFFF" d="M248.596,743.982c-0.324,1.471,12.958,5.633,29.666,9.299l1.122,0.246
			c16.708,3.667,30.511,5.446,30.833,3.978l17.391-83.391l-43.838,4.333c0,0-52.338-31.539-52.662-30.07L248.596,743.982z"/>
	</g>
</g>
</svg>
